<svg xmlns="http://www.w3.org/2000/svg" xmlns:xlink="http://www.w3.org/1999/xlink" viewBox="0 0 308.05 80.13"><defs><style>.cls-1{isolation:isolate;}.cls-2{fill:url(#Degradado_sin_nombre_4);}.cls-3{opacity:0.4;mix-blend-mode:multiply;}.cls-4{fill:#b21c29;}.cls-5{fill:#1e1e1c;}.cls-6{fill:#e51a2f;}.cls-7{fill:#ffd103;}</style><linearGradient id="Degradado_sin_nombre_4" x1="27.12" y1="80.13" x2="27.12" y2="9.66" gradientUnits="userSpaceOnUse"><stop offset="0" stop-color="#ed7630"/><stop offset="1" stop-color="#e51a2f"/></linearGradient></defs><title>Recurso 1</title><g class="cls-1"><g id="Capa_2" data-name="Capa 2"><g id="Capa_1-2" data-name="Capa 1"><path class="cls-2" d="M43,42A17.62,17.62,0,0,0,33.35,9.66H0V54.11a46.49,46.49,0,0,1,25.78-27.3l-2.69-4.42H40.83L32.71,38.17l-3.38-5.54a34.93,34.93,0,0,0-16.59,29c0,.07,0,.13,0,.2A18.24,18.24,0,0,0,31.06,80.13h3.15A20.09,20.09,0,0,0,43,42Z"/><g class="cls-3"><path class="cls-4" d="M13.64,65.62v-.2A34.17,34.17,0,0,1,29.88,37l3.3,5.43,9.28-18.06H39.78L32.71,38.17l-3.38-5.54a34.93,34.93,0,0,0-16.59,29,1.34,1.34,0,0,0,0,.2A17.72,17.72,0,0,0,13.8,68,17.67,17.67,0,0,1,13.64,65.62Z"/></g><path class="cls-5" d="M77.12,28.08h8.66a6.78,6.78,0,0,1,4.88,1.65A4.61,4.61,0,0,1,89.49,37c2.16.82,3.49,2.08,3.49,4.63,0,3.42-2.77,5.12-7,5.12H77.12Zm7.78,7.55c1.81,0,3-.59,3-2,0-1.23-1-1.92-2.69-1.92h-4v4ZM86,43.14c1.82,0,2.91-.64,2.91-2.07,0-1.26-.93-2-3-2H81.12v4.1Z"/><path class="cls-5" d="M95.28,37.41a9.92,9.92,0,1,1,9.89,9.65A9.65,9.65,0,0,1,95.28,37.41Zm15.54,0a5.67,5.67,0,0,0-5.65-5.86,5.59,5.59,0,0,0-5.6,5.86,5.67,5.67,0,0,0,5.65,5.87A5.61,5.61,0,0,0,110.82,37.41Z"/><path class="cls-5" d="M118.5,28.08H127A7.48,7.48,0,0,1,132.47,30a5.91,5.91,0,0,1,1.6,4.32,5.8,5.8,0,0,1-4,5.79l4.56,6.66h-4.8l-4.05-6H122.6v6h-4.1Zm8.26,9.07c2,0,3.15-1.07,3.15-2.7s-1.23-2.66-3.23-2.66H122.6v5.36Z"/><path class="cls-5" d="M137.7,28.08h4.1V46.74h-4.1Z"/><path class="cls-5" d="M144.92,44l2.43-2.9a8.59,8.59,0,0,0,5.57,2.26c1.68,0,2.69-.66,2.69-1.81S155,40,151.85,39.2c-3.76-1-6.18-2-6.18-5.76,0-3.39,2.72-5.63,6.53-5.63a10.79,10.79,0,0,1,6.93,2.38L157,33.28a8.72,8.72,0,0,0-4.85-1.84c-1.58,0-2.4.72-2.4,1.68,0,1.23.8,1.63,4,2.45,3.79,1,5.92,2.35,5.92,5.65,0,3.71-2.82,5.79-6.85,5.79A11.88,11.88,0,0,1,144.92,44Z"/><path class="cls-5" d="M169.9,37.41a9.49,9.49,0,0,1,9.74-9.65,9.36,9.36,0,0,1,7.22,3l-2.45,2.83a6.45,6.45,0,0,0-4.8-2.08c-3.15,0-5.41,2.61-5.41,5.86s2.21,5.87,5.41,5.87a6.73,6.73,0,0,0,4.9-2.19l2.62,2.8a9.95,9.95,0,0,1-17.23-6.48Z"/><path class="cls-5" d="M188.78,37.41a9.92,9.92,0,1,1,9.89,9.65A9.66,9.66,0,0,1,188.78,37.41Zm15.55,0a5.67,5.67,0,0,0-5.66-5.86,5.6,5.6,0,0,0-5.6,5.86,5.68,5.68,0,0,0,5.66,5.87A5.61,5.61,0,0,0,204.33,37.41Z"/><path class="cls-5" d="M212,28.08h8.53A7.48,7.48,0,0,1,226,30a5.91,5.91,0,0,1,1.6,4.32,5.8,5.8,0,0,1-4,5.79l4.56,6.66h-4.8l-4.06-6h-3.17v6H212Zm8.26,9.07c2,0,3.15-1.07,3.15-2.7s-1.23-2.66-3.23-2.66h-4.08v5.36Z"/><path class="cls-5" d="M231,28.08h7.27c5.87,0,9.92,4,9.92,9.33s-4.05,9.33-9.92,9.33H231Zm7.27,15a5.34,5.34,0,0,0,5.63-5.63,5.36,5.36,0,0,0-5.63-5.62h-3.17V43Z"/><path class="cls-5" d="M250.77,37.41a9.92,9.92,0,1,1,9.9,9.65A9.66,9.66,0,0,1,250.77,37.41Zm15.55,0a5.67,5.67,0,0,0-5.65-5.86,5.59,5.59,0,0,0-5.6,5.86,5.67,5.67,0,0,0,5.65,5.87A5.6,5.6,0,0,0,266.32,37.41Z"/><path class="cls-5" d="M271.2,28.08h4.53l4.88,13.14,4.88-13.14h4.42l-7.54,18.8h-3.63Z"/><path class="cls-5" d="M296.26,28h3.79l8,18.79h-4.3l-1.7-4.18h-7.9l-1.7,4.18h-4.19Zm4.32,11-2.48-6-2.48,6Z"/><path class="cls-6" d="M77.12,61.79a5.39,5.39,0,0,1,5.42-5.54A5.53,5.53,0,0,1,86.69,58l-.8.86a4.64,4.64,0,0,0-3.37-1.47,4.43,4.43,0,0,0,0,8.85A4.68,4.68,0,0,0,86,64.67l.79.84a5.52,5.52,0,0,1-4.29,1.83A5.36,5.36,0,0,1,77.12,61.79Z"/><path class="cls-6" d="M88.57,61.79A5.47,5.47,0,1,1,94,67.34,5.43,5.43,0,0,1,88.57,61.79Zm9.68,0a4.22,4.22,0,1,0-4.19,4.43A4.25,4.25,0,0,0,98.25,61.79Z"/><path class="cls-6" d="M105.87,56.36H107l4.89,10.79h-1.31l-1.25-2.83h-5.84l-1.27,2.83H101Zm3,6.87-2.43-5.47L104,63.23Z"/><path class="cls-6" d="M113.36,61.79a5.39,5.39,0,0,1,5.42-5.54A5.53,5.53,0,0,1,122.93,58l-.8.86a4.64,4.64,0,0,0-3.37-1.47,4.43,4.43,0,0,0,0,8.85,4.65,4.65,0,0,0,3.46-1.55l.8.84a5.52,5.52,0,0,1-4.29,1.83A5.36,5.36,0,0,1,113.36,61.79Z"/><path class="cls-6" d="M125.59,56.43h1.21V61.2H133V56.43h1.21V67.15H133V62.33H126.8v4.82h-1.21Z"/><path class="cls-7" d="M59.84.24l2.92,5.91a.48.48,0,0,0,.13.16.6.6,0,0,0,.2.08l6.51.94a.44.44,0,0,1,.24.75l-4.71,4.59a.42.42,0,0,0-.11.18.5.5,0,0,0,0,.21l1.12,6.49a.45.45,0,0,1-.26.47.42.42,0,0,1-.38,0L59.65,17a.42.42,0,0,0-.4,0L53.42,20a.45.45,0,0,1-.55-.11.43.43,0,0,1-.08-.35l1.11-6.49a.44.44,0,0,0,0-.2.45.45,0,0,0-.11-.19L49.06,8.08a.44.44,0,0,1-.12-.44.46.46,0,0,1,.36-.31l6.51-.94a.6.6,0,0,0,.2-.08.48.48,0,0,0,.13-.16L59.06.24a.44.44,0,0,1,.78,0Z"/></g></g></g></svg>