<?xml version="1.0" encoding="utf-8"?>
<!-- Generator: Adobe Illustrator 22.0.1, SVG Export Plug-In . SVG Version: 6.00 Build 0)  -->
<svg version="1.1" id="Capa_1" xmlns="http://www.w3.org/2000/svg" xmlns:xlink="http://www.w3.org/1999/xlink" x="0px" y="0px"
	 viewBox="0 0 1000 1000" style="enable-background:new 0 0 1000 1000;" xml:space="preserve">
<style type="text/css">
	.st0{fill:#FFFFFF;}
</style>
<title>icono</title>
<path class="st0" d="M115.4,910.4l25.3-229.7c-54-61.3-82.4-133.5-82.4-209.8c0-198.4,198-359.9,441.3-359.9
	s441.3,161.4,441.3,359.9s-198,359.9-441.3,359.9c-49.5,0.1-98.8-6.7-146.4-20.2L115.4,910.4z M499.6,175.9
	c-207.6,0-376.4,132.3-376.4,295c0,64,25.9,125,74.9,176.3l10.4,10.9L192,807.8l157.6-66.2l11.3,3.5c44.9,13.9,91.6,20.9,138.6,20.7
	c207.5,0,376.4-132.3,376.4-295S707.1,175.9,499.6,175.9z"/>
<path class="st0" d="M447.2,435.5l2.7-2.7c67.3-2.7,93.4-20.3,93.4-49.6c0-24-18.2-37.9-49.1-37.9c-29.9,0-55.5,12.3-80.1,36.9
	L365,328.2c31-34.2,72.6-57.7,130.8-57.7c76.9,0,129.2,39.5,129.2,111.6c0,67.8-47,95.6-105.2,107.3L514,522h-54.5L447.2,435.5z
	 M441.9,563.7h86.5v85.4h-86.5V563.7z"/>
</svg>
